<svg width="480" height="380" viewBox="0 0 480 380" fill="none" xmlns="http://www.w3.org/2000/svg">
<g filter="url(#filter0_d_1_75)">
<rect x="25" y="25" width="430" height="330" rx="10" fill="white"/>
</g>
<rect x="61" y="268.337" width="358" height="50.152" rx="2" fill="black"/>
<path d="M224.108 291C223.622 288.315 221.474 286.73 218.841 286.73C215.491 286.73 213.062 289.312 213.062 293.455C213.062 297.597 215.491 300.179 218.841 300.179C221.474 300.179 223.622 298.594 224.108 295.909H222.522C222.139 297.724 220.579 298.696 218.841 298.696C216.463 298.696 214.596 296.855 214.596 293.455C214.596 290.054 216.463 288.213 218.841 288.213C220.579 288.213 222.139 289.185 222.522 291H224.108ZM226.465 300H227.973V293.787C227.973 292.457 229.021 291.486 230.453 291.486C230.856 291.486 231.271 291.562 231.374 291.588V290.054C231.201 290.041 230.805 290.028 230.581 290.028C229.405 290.028 228.382 290.693 228.024 291.665H227.922V290.182H226.465V300ZM236.98 300.205C238.974 300.205 240.431 299.207 240.892 297.724L239.434 297.315C239.051 298.338 238.162 298.849 236.98 298.849C235.209 298.849 233.988 297.705 233.918 295.602H241.045V294.963C241.045 291.307 238.872 290.054 236.826 290.054C234.167 290.054 232.403 292.151 232.403 295.168C232.403 298.185 234.142 300.205 236.98 300.205ZM233.918 294.298C234.02 292.771 235.1 291.409 236.826 291.409C238.463 291.409 239.511 292.636 239.511 294.298H233.918ZM246.229 300.23C247.942 300.23 248.837 299.31 249.144 298.67H249.22V300H250.729V293.531C250.729 290.412 248.351 290.054 247.098 290.054C245.615 290.054 243.928 290.565 243.161 292.355L244.593 292.866C244.925 292.151 245.711 291.384 247.149 291.384C248.536 291.384 249.22 292.119 249.22 293.378V293.429C249.22 294.158 248.479 294.094 246.689 294.324C244.867 294.56 242.879 294.963 242.879 297.213C242.879 299.131 244.362 300.23 246.229 300.23ZM246.459 298.875C245.257 298.875 244.388 298.338 244.388 297.29C244.388 296.139 245.436 295.781 246.612 295.628C247.252 295.551 248.965 295.372 249.22 295.065V296.446C249.22 297.673 248.249 298.875 246.459 298.875ZM257.752 290.182H255.656V287.83H254.147V290.182H252.664V291.46H254.147V297.597C254.147 299.31 255.528 300.128 256.806 300.128C257.369 300.128 257.727 300.026 257.931 299.949L257.624 298.594C257.496 298.619 257.292 298.67 256.96 298.67C256.295 298.67 255.656 298.466 255.656 297.188V291.46H257.752V290.182ZM264.032 300.205C266.027 300.205 267.484 299.207 267.944 297.724L266.487 297.315C266.103 298.338 265.215 298.849 264.032 298.849C262.262 298.849 261.041 297.705 260.971 295.602H268.098V294.963C268.098 291.307 265.924 290.054 263.879 290.054C261.22 290.054 259.456 292.151 259.456 295.168C259.456 298.185 261.194 300.205 264.032 300.205ZM260.971 294.298C261.073 292.771 262.153 291.409 263.879 291.409C265.515 291.409 266.564 292.636 266.564 294.298H260.971Z" fill="white"/>
<line opacity="0.2" x1="61" y1="219.837" x2="419" y2="219.837" stroke="black"/>
<path d="M63.4659 196.818H62.233V207H63.4659V196.818ZM65.7789 207H66.9522V202.227C66.9522 201.109 67.7676 200.318 68.6824 200.318C69.5723 200.318 70.1937 200.9 70.1937 201.77V207H71.3869V202.028C71.3869 201.044 72.0034 200.318 73.0772 200.318C73.9125 200.318 74.6284 200.761 74.6284 201.889V207H75.8017V201.889C75.8017 200.094 74.8372 199.264 73.475 199.264C72.3812 199.264 71.5808 199.766 71.188 200.557H71.1085C70.7306 199.741 70.0645 199.264 69.0602 199.264C68.0659 199.264 67.3301 199.741 67.0119 200.557H66.9125V199.364H65.7789V207ZM80.1941 207.179C81.5265 207.179 82.2225 206.463 82.4611 205.966H82.5208V207H83.6941V201.969C83.6941 199.543 81.8446 199.264 80.8702 199.264C79.7168 199.264 78.4043 199.662 77.8077 201.054L78.9213 201.452C79.1799 200.895 79.7914 200.298 80.91 200.298C81.9888 200.298 82.5208 200.87 82.5208 201.849V201.889C82.5208 202.456 81.9441 202.406 80.552 202.585C79.1351 202.769 77.589 203.082 77.589 204.832C77.589 206.324 78.7424 207.179 80.1941 207.179ZM80.373 206.125C79.4384 206.125 78.7623 205.707 78.7623 204.892C78.7623 203.997 79.5776 203.719 80.4924 203.599C80.9895 203.54 82.3219 203.401 82.5208 203.162V204.236C82.5208 205.19 81.7651 206.125 80.373 206.125ZM88.918 210.023C90.7475 210.023 92.2191 209.188 92.2191 207.219V199.364H91.0856V200.577H90.9663C90.7077 200.179 90.2305 199.264 88.739 199.264C86.81 199.264 85.4776 200.795 85.4776 203.142C85.4776 205.528 86.8697 206.881 88.7191 206.881C90.2106 206.881 90.6879 206.006 90.9464 205.588H91.0458V207.139C91.0458 208.412 90.1509 208.989 88.918 208.989C87.5309 208.989 87.0437 208.258 86.7305 207.835L85.7958 208.491C86.2731 209.292 87.2127 210.023 88.918 210.023ZM88.8782 205.827C87.4066 205.827 86.6509 204.713 86.6509 203.122C86.6509 201.571 87.3867 200.318 88.8782 200.318C90.31 200.318 91.0657 201.472 91.0657 203.122C91.0657 204.812 90.2901 205.827 88.8782 205.827ZM97.5685 207.159C99.1197 207.159 100.253 206.384 100.611 205.23L99.4776 204.912C99.1793 205.707 98.4883 206.105 97.5685 206.105C96.1914 206.105 95.2418 205.215 95.1871 203.58H100.73V203.082C100.73 200.239 99.0401 199.264 97.4492 199.264C95.381 199.264 94.0089 200.895 94.0089 203.241C94.0089 205.588 95.3612 207.159 97.5685 207.159ZM95.1871 202.565C95.2667 201.377 96.1069 200.318 97.4492 200.318C98.7219 200.318 99.5373 201.273 99.5373 202.565H95.1871ZM107.626 196.818H106.453V207H107.626V196.818ZM109.775 207H110.948V199.364H109.775V207ZM110.372 198.091C110.829 198.091 111.207 197.733 111.207 197.295C111.207 196.858 110.829 196.5 110.372 196.5C109.914 196.5 109.536 196.858 109.536 197.295C109.536 197.733 109.914 198.091 110.372 198.091ZM114.271 202.406C114.271 201.074 115.096 200.318 116.219 200.318C117.308 200.318 117.969 201.029 117.969 202.227V207H119.143V202.148C119.143 200.199 118.104 199.264 116.558 199.264C115.404 199.264 114.688 199.781 114.33 200.557H114.231V199.364H113.097V207H114.271V202.406ZM121.287 207H122.46V204.141L123.28 203.381L126.139 207H127.631L124.165 202.625L127.392 199.364H125.94L122.599 202.764H122.46V196.818H121.287V207Z" fill="#C4C4C4"/>
<line opacity="0.2" x1="61" y1="162.755" x2="419" y2="162.755" stroke="black"/>
<path d="M61.6761 140.912H64.8778V150H66.1108V140.912H69.3125V139.818H61.6761V140.912ZM71.0563 150H72.2296V142.364H71.0563V150ZM71.6529 141.091C72.1103 141.091 72.4881 140.733 72.4881 140.295C72.4881 139.858 72.1103 139.5 71.6529 139.5C71.1955 139.5 70.8176 139.858 70.8176 140.295C70.8176 140.733 71.1955 141.091 71.6529 141.091ZM77.6996 142.364H76.0689V140.534H74.8956V142.364H73.7422V143.358H74.8956V148.131C74.8956 149.463 75.9695 150.099 76.9638 150.099C77.4013 150.099 77.6797 150.02 77.8388 149.96L77.6001 148.906C77.5007 148.926 77.3416 148.966 77.0831 148.966C76.5661 148.966 76.0689 148.807 76.0689 147.812V143.358H77.6996V142.364ZM80.8018 139.818H79.6286V150H80.8018V139.818ZM86.1525 150.159C87.7037 150.159 88.8372 149.384 89.1951 148.23L88.0616 147.912C87.7633 148.707 87.0723 149.105 86.1525 149.105C84.7754 149.105 83.8258 148.215 83.7711 146.58H89.3145V146.082C89.3145 143.239 87.6241 142.264 86.0332 142.264C83.965 142.264 82.5929 143.895 82.5929 146.241C82.5929 148.588 83.9451 150.159 86.1525 150.159ZM83.7711 145.565C83.8507 144.377 84.6909 143.318 86.0332 143.318C87.3059 143.318 88.1213 144.273 88.1213 145.565H83.7711Z" fill="#C4C4C4"/>
<path d="M77.2273 64.5455H72.4886V73.6818H72.3523L66.1477 64.5455H62.125V82H66.8636V72.8295H66.9659L73.2727 82H77.2273V64.5455ZM85.8097 82.2386C89.4403 82.2386 91.7756 80.5 92.2188 77.7727H87.9233C87.6506 78.5142 86.875 78.9318 85.9119 78.9318C84.5142 78.9318 83.696 78.0114 83.696 76.75V76.5455H92.2188V75.4545C92.2188 71.2869 89.6619 68.7386 85.7074 68.7386C81.6506 68.7386 79.0597 71.4318 79.0597 75.4886C79.0597 79.7244 81.6165 82.2386 85.8097 82.2386ZM83.696 73.9545C83.7216 72.821 84.6591 72.0455 85.8097 72.0455C86.9773 72.0455 87.8636 72.8295 87.8892 73.9545H83.696ZM96.2926 82H101.372L103.213 74.9773H103.349L105.19 82H110.27L113.543 68.9091H108.838L107.406 76.8182H107.304L105.565 68.9091H100.997L99.3267 76.8864H99.2244L97.7244 68.9091H93.0199L96.2926 82ZM119.756 86.9091H124.46V79.8523H124.528C125.074 81.1818 126.335 82.1705 128.176 82.1705C130.972 82.1705 133.324 79.9886 133.324 75.4545C133.324 70.7159 130.801 68.7386 128.21 68.7386C126.267 68.7386 125.04 69.8636 124.528 71.1932H124.426V68.9091H119.756V86.9091ZM124.358 75.4545C124.358 73.5114 125.142 72.3523 126.438 72.3523C127.733 72.3523 128.483 73.5114 128.483 75.4545C128.483 77.3977 127.733 78.5568 126.438 78.5568C125.142 78.5568 124.358 77.3636 124.358 75.4545ZM139.999 64.5455H135.295V82H139.999V64.5455ZM146.044 82.2045C147.749 82.2045 149.036 81.625 149.828 80.1591H149.93V82H154.328V73.0341C154.328 70.6136 152.036 68.7386 148.294 68.7386C144.382 68.7386 142.456 70.7841 142.294 73.1705H146.624C146.734 72.3608 147.331 71.9773 148.226 71.9773C149.044 71.9773 149.624 72.3523 149.624 73.0341V73.0682C149.624 73.8267 148.788 74.0653 146.589 74.2273C143.888 74.4233 141.783 75.5142 141.783 78.3864C141.783 80.9943 143.538 82.2045 146.044 82.2045ZM147.578 79.2386C146.777 79.2386 146.214 78.8466 146.214 78.1136C146.214 77.4403 146.692 76.9205 147.783 76.75C148.533 76.6307 149.163 76.4773 149.658 76.2727V77.3636C149.658 78.5568 148.643 79.2386 147.578 79.2386ZM162.883 82.2386C166.761 82.2386 169.138 80.0142 169.19 76.5455H164.826C164.724 77.9176 163.982 78.6591 162.951 78.6591C161.715 78.6591 160.906 77.6023 160.906 75.4545C160.906 73.3068 161.715 72.25 162.951 72.25C163.991 72.25 164.698 72.9915 164.826 74.3636H169.19C169.164 70.9545 166.735 68.7386 162.883 68.7386C158.621 68.7386 156.099 71.4659 156.099 75.4886C156.099 79.5114 158.621 82.2386 162.883 82.2386ZM177.403 82.2386C181.034 82.2386 183.369 80.5 183.812 77.7727H179.517C179.244 78.5142 178.469 78.9318 177.506 78.9318C176.108 78.9318 175.29 78.0114 175.29 76.75V76.5455H183.812V75.4545C183.812 71.2869 181.256 68.7386 177.301 68.7386C173.244 68.7386 170.653 71.4318 170.653 75.4886C170.653 79.7244 173.21 82.2386 177.403 82.2386ZM175.29 73.9545C175.315 72.821 176.253 72.0455 177.403 72.0455C178.571 72.0455 179.457 72.8295 179.483 73.9545H175.29Z" fill="black"/>
<defs>
<filter id="filter0_d_1_75" x="0" y="0" width="480" height="380" filterUnits="userSpaceOnUse" color-interpolation-filters="sRGB">
<feFlood flood-opacity="0" result="BackgroundImageFix"/>
<feColorMatrix in="SourceAlpha" type="matrix" values="0 0 0 0 0 0 0 0 0 0 0 0 0 0 0 0 0 0 127 0" result="hardAlpha"/>
<feOffset/>
<feGaussianBlur stdDeviation="12.5"/>
<feColorMatrix type="matrix" values="0 0 0 0 0 0 0 0 0 0 0 0 0 0 0 0 0 0 0.15 0"/>
<feBlend mode="normal" in2="BackgroundImageFix" result="effect1_dropShadow_1_75"/>
<feBlend mode="normal" in="SourceGraphic" in2="effect1_dropShadow_1_75" result="shape"/>
</filter>
</defs>
</svg>
